<svg width="27" height="27" viewBox="0 0 27 27" fill="none" xmlns="http://www.w3.org/2000/svg">
<path d="M19.3644 16.8291C19.3644 16.6266 19.1997 16.4619 18.9972 16.4619H7.97849C7.77599 16.4619 7.61129 16.6266 7.61129 16.8291V17.5635C7.61129 17.766 7.77599 17.9307 7.97849 17.9307H18.9972C19.1997 17.9307 19.3644 17.766 19.3644 17.5635V16.8291ZM19.3644 13.1571C19.3644 12.9546 19.1997 12.7899 18.9972 12.7899H7.97849C7.77599 12.7899 7.61129 12.9546 7.61129 13.1571V13.8915C7.61129 14.094 7.77599 14.2587 7.97849 14.2587H18.9972C19.1997 14.2587 19.3644 14.094 19.3644 13.8915V13.1571ZM22.3155 3.9582H18.6435V5.427H21.5811C22.7988 5.427 23.7843 6.4125 23.7843 7.6302V23.058C23.7843 24.2757 22.7988 25.2612 21.5811 25.2612H5.41889C4.20119 25.2612 3.21569 24.2757 3.21569 23.058V7.6302C3.21569 6.4125 4.20119 5.427 5.41889 5.427H8.34569V3.9582H4.68449C3.06179 3.9582 1.74689 5.2731 1.74689 6.8958V23.7924C1.74689 25.4151 3.06179 26.73 4.68449 26.73H22.3155C23.9382 26.73 25.2531 25.4151 25.2531 23.7924V6.8958C25.2531 5.2731 23.9382 3.9582 22.3155 3.9582ZM18.9972 20.1366H7.97849C7.77599 20.1366 7.61129 20.3013 7.61129 20.5038V21.2382C7.61129 21.4407 7.77599 21.6054 7.97849 21.6054H18.9972C19.1997 21.6054 19.3644 21.4407 19.3644 21.2382V20.5038C19.3644 20.3013 19.2024 20.1366 18.9972 20.1366Z" fill="#23D899"/>
<path d="M23.0553 5.4324C23.0553 4.1553 22.3992 3.9555 19.98 3.9555H19.386V2.5056H16.4997C16.1352 0.963897 15.2064 0.269997 13.5594 0.269997C11.9097 0.269997 10.8702 0.963897 10.503 2.5056H7.641V3.9771H7.5843C5.1624 3.9771 4.6926 3.7152 4.6926 5.4297H7.641V9.1125H19.3833V5.4351H19.98L18.0441 5.4324H23.0553ZM12.0231 3.9393V3.6126C12.0231 2.5704 12.5226 1.728 13.5594 1.728C14.5962 1.728 14.9823 2.5731 14.9823 3.6126V3.9393H17.8875V7.6356L9.072 7.6194V3.9393H12.0231ZM7.587 5.4135H7.6437H7.587Z" fill="#23D899"/>
</svg>
